{
 "cells": [
  {
   "cell_type": "code",
   "execution_count": 2,
   "metadata": {},
   "outputs": [],
   "source": [
    "import math\n",
    "import pickle\n",
    "import subprocess\n",
    "from tqdm.notebook import tqdm\n",
    "import numpy as np\n",
    "import pandas as pd\n",
    "import matplotlib.pyplot as plt\n",
    "import matplotlib.patches as patches\n",
    "import matplotlib.animation as animation\n",
    "from UDFManager import *\n",
    "from pyudf.rotation import Quaternion\n",
    "\n",
    "plt.style.use('presentation_')"
   ]
  },
  {
   "cell_type": "code",
   "execution_count": 4,
   "metadata": {
    "jupyter": {
     "source_hidden": true
    }
   },
   "outputs": [],
   "source": [
    "# def quaternionToRotationArray(q):\n",
    "#     return [\n",
    "#         [1 - 2 * (q.q2 * q.q2 + q.q3 * q.q3), 2 * (q.q1 * q.q2 + q.q0 * q.q3), 2 * (q.q3 * q.q1 - q.q0 * q.q2)],\n",
    "#         [2 * (q.q1 * q.q2 - q.q0 * q.q3), 1 - 2 * (q.q1 * q.q1 + q.q3 * q.q3), 2 * (q.q2 * q.q3 + q.q0 * q.q1)],\n",
    "#         [2 * (q.q3 * q.q1 + q.q0 * q.q2), 2 * (q.q2 * q.q3 - q.q0 * q.q1), 1 - 2 * (q.q1 * q.q1 - q.q2 * q.q2)]\n",
    "#     ]\n",
    "\n",
    "# for j in range(4):\n",
    "#     for i in np.linspace(20, 60, 5, dtype=np.uint8):\n",
    "#         uobj = UDFManager(f'{j:0=2.0f}/udf/{i:0=3.0f}/output.udf')\n",
    "#         nt = uobj.totalRecord()\n",
    "#         start_pos = []\n",
    "#         end_pos = []\n",
    "#         for n in range(nt):\n",
    "#             uobj.jump(n)\n",
    "#             s = np.array(uobj.get(\"Particles[].R\")[0])\n",
    "#             e = s + np.array(quaternionToRotationArray(Quaternion(*uobj.get(\"Particles[].q\")[0]))[1])\n",
    "#             start_pos.append(s)\n",
    "#             end_pos.append(e)\n",
    "#         start_pos = np.array(start_pos)\n",
    "#         end_pos = np.array(end_pos)\n",
    "        \n",
    "#         np.save(f'positions/{j:0=2.0f}_{i:0=3.0f}_start', start_pos)\n",
    "#         np.save(f'positions/{j:0=2.0f}_{i:0=3.0f}_end', end_pos)\n",
    "\n",
    "# for j in range(4):\n",
    "#     for i in np.linspace(20, 60, 5, dtype=np.uint8):\n",
    "#         start_pos = np.load(f'positions/{j:0=2.0f}_{i:0=3.0f}_start.npy')\n",
    "#         end_pos = np.load(f'positions/{j:0=2.0f}_{i:0=3.0f}_end.npy')"
   ]
  },
  {
   "cell_type": "code",
   "execution_count": 3,
   "metadata": {},
   "outputs": [],
   "source": [
    "# EPS = 12\n",
    "# for j in range(4):\n",
    "#     for i in np.linspace(20, 60, 5, dtype=np.uint8):\n",
    "#         start_pos = np.load(f'positions/{j:0=2.0f}_{i:0=3.0f}_start.npy')\n",
    "#         end_pos = np.load(f'positions/{j:0=2.0f}_{i:0=3.0f}_end.npy')\n",
    "\n",
    "#         for n in tqdm(range(401)):\n",
    "#             start_position = [start_pos[n][0], start_pos[n][1]]\n",
    "#             end_position = [(end_pos[n][0] - start_pos[n][0]) * EPS, (end_pos[n][1] - start_pos[n][1]) * EPS]\n",
    "#             fig, ax = plt.subplots(figsize=(4, 4))\n",
    "#             ax.set_xlim([0, 64])\n",
    "#             ax.set_ylim([32, 96])\n",
    "#             ax.tick_params(top=False, bottom=False, right=False, left=False)\n",
    "#             ax.set_xticklabels(labels=[])\n",
    "#             ax.set_yticklabels(labels=[])\n",
    "#             particle = patches.Circle(\n",
    "#                 tuple(start_position),\n",
    "#                 radius=5,\n",
    "#                 fc='w',\n",
    "#                 linewidth=3\n",
    "#             )\n",
    "#             arrow = patches.FancyArrow(\n",
    "#                 *start_position,\n",
    "#                 *end_position,\n",
    "#                 width=2,\n",
    "#                 head_width=4,\n",
    "#                 head_length=3,\n",
    "#                 ec='k',\n",
    "#                 fc='k'\n",
    "#             )\n",
    "#             ax.add_patch(arrow)\n",
    "#             ax.add_patch(particle)\n",
    "#             plt.savefig(f'figs/{j:0=2.0f}/{i:0=3.0f}/{n:0=3.0f}.png')\n",
    "#             plt.close()\n",
    "# #     subprocess.run(['ffmpeg', '-f', 'image2', '-r', '15', '-i', f'figs/{j:0=2.0f}/{i:0=3.0f}/_%03d.png', '-r', '15', '-an', '-vcodec', 'libx264', '-pix_fmt', 'yuv420p', f'figs/{j:0=2.0f}/{i:0=3.0f}/video.mp4'])"
   ]
  },
  {
   "cell_type": "code",
   "execution_count": null,
   "metadata": {},
   "outputs": [],
   "source": [
    "EPS = 12\n",
    "for j in range(1):\n",
    "    for i in np.linspace(20, 60, 5, dtype=np.uint8):\n",
    "        start_pos = np.load(f'positions/{j:0=2.0f}_{i:0=3.0f}_start.npy')\n",
    "        end_pos = np.load(f'positions/{j:0=2.0f}_{i:0=3.0f}_end.npy')\n",
    "\n",
    "        for n in tqdm(range(401)):\n",
    "            start_position = [start_pos[n][0], start_pos[n][1]]\n",
    "            end_position = [(end_pos[n][0] - start_pos[n][0]) * EPS, (end_pos[n][1] - start_pos[n][1]) * EPS]\n",
    "            fig, ax = plt.subplots(figsize=(4, 4))\n",
    "            ax.set_xlim([0, 64])\n",
    "            ax.set_ylim([32, 96])\n",
    "            ax.tick_params(top=False, bottom=False, right=False, left=False)\n",
    "            ax.set_xticklabels(labels=[])\n",
    "            ax.set_yticklabels(labels=[])\n",
    "            particle = patches.Circle(\n",
    "                tuple(start_position),\n",
    "                radius=5,\n",
    "                fc='w',\n",
    "                linewidth=3\n",
    "            )\n",
    "            arrow = patches.FancyArrow(\n",
    "                *start_position,\n",
    "                *end_position,\n",
    "                width=2,\n",
    "                head_width=4,\n",
    "                head_length=3,\n",
    "                ec='k',\n",
    "                fc='k'\n",
    "            )\n",
    "            ax.add_patch(arrow)\n",
    "            ax.add_patch(particle)\n",
    "            plt.savefig(f'figs/{j:0=2.0f}/{i:0=3.0f}/{n:0=3.0f}.png')\n",
    "            plt.close()\n",
    "    subprocess.run(['ffmpeg', '-f', 'image2', '-r', '15', '-i', f'figs/{j:0=2.0f}/{i:0=3.0f}/_%03d.png', '-r', '15', '-an', '-vcodec', 'libx264', '-pix_fmt', 'yuv420p', f'figs/{j:0=2.0f}/{i:0=3.0f}/video.mp4'])"
   ]
  },
  {
   "cell_type": "code",
   "execution_count": 76,
   "metadata": {},
   "outputs": [],
   "source": [
    "EPS = 25\n",
    "for j in range(4):\n",
    "    for i in np.linspace(20, 60, 5, dtype=np.uint8):\n",
    "        start_pos = np.load(f'positions/{j:0=2.0f}_{i:0=3.0f}_start.npy')\n",
    "        end_pos = np.load(f'positions/{j:0=2.0f}_{i:0=3.0f}_end.npy')\n",
    "\n",
    "        n = 400\n",
    "\n",
    "        gap = (start_pos[n][0] - 32, start_pos[n][1] - 64)\n",
    "\n",
    "        start_position = [start_pos[n][0] - gap[0], start_pos[n][1] - gap[1]]\n",
    "        end_position = [((end_pos[n][0] - gap[0]) - start_position[0]) * EPS, ((end_pos[n][1] - gap[1]) - start_position[1]) * EPS]\n",
    "\n",
    "        fig, ax = plt.subplots(figsize=(4, 4))\n",
    "        ax.set_xlim([0, 64])\n",
    "        ax.set_ylim([32, 96])\n",
    "        ax.tick_params(top=False, bottom=False, right=False, left=False)\n",
    "        ax.set_xticklabels(labels=[])\n",
    "        ax.set_yticklabels(labels=[])\n",
    "        particle = patches.Circle(\n",
    "            tuple(start_position),\n",
    "            radius=8,\n",
    "            fc='w',\n",
    "            linewidth=3\n",
    "        )\n",
    "        arrow = patches.FancyArrow(\n",
    "            *start_position,\n",
    "            *end_position,\n",
    "            width=4,\n",
    "            head_width=8,\n",
    "            head_length=3,\n",
    "            ec='k',\n",
    "            fc='k'\n",
    "        )\n",
    "        if (j == 0 and i < 60) or (j == 1 and i < 50) or (j == 2 and i < 40):\n",
    "            ax.set_facecolor(\"#B4C7E7\")\n",
    "            ax.add_patch(arrow)\n",
    "        else:\n",
    "            ax.set_facecolor(\"#F8CBAD\")\n",
    "        ax.add_patch(particle)\n",
    "        plt.savefig(f'figs/{j:0=2.0f}/{i:0=3.0f}/fixed.png')\n",
    "        plt.close()"
   ]
  },
  {
   "cell_type": "code",
   "execution_count": 82,
   "metadata": {},
   "outputs": [
    {
     "name": "stdout",
     "output_type": "stream",
     "text": [
      "ffmpeg version 4.2.1 Copyright (c) 2000-2019 the FFmpeg developers\n",
      "  built with Apple clang version 11.0.0 (clang-1100.0.33.8)\n",
      "  configuration: --prefix=/usr/local/Cellar/ffmpeg/4.2.1_2 --enable-shared --enable-pthreads --enable-version3 --enable-avresample --cc=clang --host-cflags='-I/Library/Java/JavaVirtualMachines/adoptopenjdk-13.jdk/Contents/Home/include -I/Library/Java/JavaVirtualMachines/adoptopenjdk-13.jdk/Contents/Home/include/darwin -fno-stack-check' --host-ldflags= --enable-ffplay --enable-gnutls --enable-gpl --enable-libaom --enable-libbluray --enable-libmp3lame --enable-libopus --enable-librubberband --enable-libsnappy --enable-libtesseract --enable-libtheora --enable-libvidstab --enable-libvorbis --enable-libvpx --enable-libx264 --enable-libx265 --enable-libxvid --enable-lzma --enable-libfontconfig --enable-libfreetype --enable-frei0r --enable-libass --enable-libopencore-amrnb --enable-libopencore-amrwb --enable-libopenjpeg --enable-librtmp --enable-libspeex --enable-libsoxr --enable-videotoolbox --disable-libjack --disable-indev=jack\n",
      "  libavutil      56. 31.100 / 56. 31.100\n",
      "  libavcodec     58. 54.100 / 58. 54.100\n",
      "  libavformat    58. 29.100 / 58. 29.100\n",
      "  libavdevice    58.  8.100 / 58.  8.100\n",
      "  libavfilter     7. 57.100 /  7. 57.100\n",
      "  libavresample   4.  0.  0 /  4.  0.  0\n",
      "  libswscale      5.  5.100 /  5.  5.100\n",
      "  libswresample   3.  5.100 /  3.  5.100\n",
      "  libpostproc    55.  5.100 / 55.  5.100\n",
      "Input #0, image2, from 'figs/00/060/%03d.png':\n",
      "  Duration: 00:00:26.73, start: 0.000000, bitrate: N/A\n",
      "    Stream #0:0: Video: png, rgba(pc), 400x400 [SAR 3937:3937 DAR 1:1], 15 fps, 15 tbr, 15 tbn, 15 tbc\n",
      "Stream mapping:\n",
      "  Stream #0:0 -> #0:0 (png (native) -> h264 (libx264))\n",
      "Press [q] to stop, [?] for help\n",
      "\u001b[1;36m[libx264 @ 0x7fcd46801000] \u001b[0musing SAR=1/1\n",
      "\u001b[1;36m[libx264 @ 0x7fcd46801000] \u001b[0musing cpu capabilities: MMX2 SSE2Fast SSSE3 SSE4.2 AVX FMA3 BMI2 AVX2\n",
      "\u001b[1;36m[libx264 @ 0x7fcd46801000] \u001b[0mprofile High, level 2.1\n",
      "\u001b[1;36m[libx264 @ 0x7fcd46801000] \u001b[0m264 - core 155 r2917 0a84d98 - H.264/MPEG-4 AVC codec - Copyleft 2003-2018 - http://www.videolan.org/x264.html - options: cabac=1 ref=3 deblock=1:0:0 analyse=0x3:0x113 me=hex subme=7 psy=1 psy_rd=1.00:0.00 mixed_ref=1 me_range=16 chroma_me=1 trellis=1 8x8dct=1 cqm=0 deadzone=21,11 fast_pskip=1 chroma_qp_offset=-2 threads=6 lookahead_threads=1 sliced_threads=0 nr=0 decimate=1 interlaced=0 bluray_compat=0 constrained_intra=0 bframes=3 b_pyramid=2 b_adapt=1 b_bias=0 direct=1 weightb=1 open_gop=0 weightp=2 keyint=250 keyint_min=15 scenecut=40 intra_refresh=0 rc_lookahead=40 rc=crf mbtree=1 crf=23.0 qcomp=0.60 qpmin=0 qpmax=69 qpstep=4 ip_ratio=1.40 aq=1:1.00\n",
      "Output #0, mp4, to 'figs/00/060/video.mp4':\n",
      "  Metadata:\n",
      "    encoder         : Lavf58.29.100\n",
      "    Stream #0:0: Video: h264 (libx264) (avc1 / 0x31637661), yuv420p, 400x400 [SAR 1:1 DAR 1:1], q=-1--1, 15 fps, 15360 tbn, 15 tbc\n",
      "    Metadata:\n",
      "      encoder         : Lavc58.54.100 libx264\n",
      "    Side data:\n",
      "      cpb: bitrate max/min/avg: 0/0/0 buffer size: 0 vbv_delay: -1\n",
      "frame=  401 fps=276 q=-1.0 Lsize=      75kB time=00:00:26.53 bitrate=  23.1kbits/s speed=18.3x    \n",
      "video:70kB audio:0kB subtitle:0kB other streams:0kB global headers:0kB muxing overhead: 7.143157%\n",
      "\u001b[1;36m[libx264 @ 0x7fcd46801000] \u001b[0mframe I:2     Avg QP:14.74  size:  1211\n",
      "\u001b[1;36m[libx264 @ 0x7fcd46801000] \u001b[0mframe P:210   Avg QP:17.03  size:   220\n",
      "\u001b[1;36m[libx264 @ 0x7fcd46801000] \u001b[0mframe B:189   Avg QP:22.01  size:   118\n",
      "\u001b[1;36m[libx264 @ 0x7fcd46801000] \u001b[0mconsecutive B-frames: 22.7% 35.9% 22.4% 19.0%\n",
      "\u001b[1;36m[libx264 @ 0x7fcd46801000] \u001b[0mmb I  I16..4: 55.4% 40.3%  4.2%\n",
      "\u001b[1;36m[libx264 @ 0x7fcd46801000] \u001b[0mmb P  I16..4:  0.1%  0.3%  0.2%  P16..4:  1.1%  0.4%  0.3%  0.0%  0.0%    skip:97.6%\n",
      "\u001b[1;36m[libx264 @ 0x7fcd46801000] \u001b[0mmb B  I16..4:  0.1%  0.1%  0.1%  B16..8:  1.1%  0.5%  0.2%  direct: 0.1%  skip:97.8%  L0:36.8% L1:33.8% BI:29.4%\n",
      "\u001b[1;36m[libx264 @ 0x7fcd46801000] \u001b[0m8x8 transform intra:41.2% inter:2.5%\n",
      "\u001b[1;36m[libx264 @ 0x7fcd46801000] \u001b[0mcoded y,uvDC,uvAC intra: 10.3% 0.0% 0.0% inter: 0.4% 0.0% 0.0%\n",
      "\u001b[1;36m[libx264 @ 0x7fcd46801000] \u001b[0mi16 v,h,dc,p: 74% 18%  7%  0%\n",
      "\u001b[1;36m[libx264 @ 0x7fcd46801000] \u001b[0mi8 v,h,dc,ddl,ddr,vr,hd,vl,hu: 10% 18% 72%  0%  0%  0%  0%  0%  0%\n",
      "\u001b[1;36m[libx264 @ 0x7fcd46801000] \u001b[0mi4 v,h,dc,ddl,ddr,vr,hd,vl,hu: 18% 17% 43%  5%  4%  4%  4%  3%  2%\n",
      "\u001b[1;36m[libx264 @ 0x7fcd46801000] \u001b[0mi8c dc,h,v,p: 100%  0%  0%  0%\n",
      "\u001b[1;36m[libx264 @ 0x7fcd46801000] \u001b[0mWeighted P-Frames: Y:0.0% UV:0.0%\n",
      "\u001b[1;36m[libx264 @ 0x7fcd46801000] \u001b[0mref P L0: 87.6%  4.7%  5.5%  2.2%\n",
      "\u001b[1;36m[libx264 @ 0x7fcd46801000] \u001b[0mref B L0: 88.2% 10.1%  1.7%\n",
      "\u001b[1;36m[libx264 @ 0x7fcd46801000] \u001b[0mref B L1: 99.2%  0.8%\n",
      "\u001b[1;36m[libx264 @ 0x7fcd46801000] \u001b[0mkb/s:21.19\n"
     ]
    }
   ],
   "source": [
    "!ffmpeg -f image2 -r 15 -i figs/00/060/%03d.png -r 15 -an -vcodec libx264 -pix_fmt yuv420p figs/00/060/video.mp4"
   ]
  },
  {
   "cell_type": "code",
   "execution_count": 89,
   "metadata": {},
   "outputs": [
    {
     "name": "stdout",
     "output_type": "stream",
     "text": [
      "ffmpeg version 4.2.1 Copyright (c) 2000-2019 the FFmpeg developers\n",
      "  built with Apple clang version 11.0.0 (clang-1100.0.33.8)\n",
      "  configuration: --prefix=/usr/local/Cellar/ffmpeg/4.2.1_2 --enable-shared --enable-pthreads --enable-version3 --enable-avresample --cc=clang --host-cflags='-I/Library/Java/JavaVirtualMachines/adoptopenjdk-13.jdk/Contents/Home/include -I/Library/Java/JavaVirtualMachines/adoptopenjdk-13.jdk/Contents/Home/include/darwin -fno-stack-check' --host-ldflags= --enable-ffplay --enable-gnutls --enable-gpl --enable-libaom --enable-libbluray --enable-libmp3lame --enable-libopus --enable-librubberband --enable-libsnappy --enable-libtesseract --enable-libtheora --enable-libvidstab --enable-libvorbis --enable-libvpx --enable-libx264 --enable-libx265 --enable-libxvid --enable-lzma --enable-libfontconfig --enable-libfreetype --enable-frei0r --enable-libass --enable-libopencore-amrnb --enable-libopencore-amrwb --enable-libopenjpeg --enable-librtmp --enable-libspeex --enable-libsoxr --enable-videotoolbox --disable-libjack --disable-indev=jack\n",
      "  libavutil      56. 31.100 / 56. 31.100\n",
      "  libavcodec     58. 54.100 / 58. 54.100\n",
      "  libavformat    58. 29.100 / 58. 29.100\n",
      "  libavdevice    58.  8.100 / 58.  8.100\n",
      "  libavfilter     7. 57.100 /  7. 57.100\n",
      "  libavresample   4.  0.  0 /  4.  0.  0\n",
      "  libswscale      5.  5.100 /  5.  5.100\n",
      "  libswresample   3.  5.100 /  3.  5.100\n",
      "  libpostproc    55.  5.100 / 55.  5.100\n",
      "Input #0, mov,mp4,m4a,3gp,3g2,mj2, from 'figs/00/060/video.mp4':\n",
      "  Metadata:\n",
      "    major_brand     : isom\n",
      "    minor_version   : 512\n",
      "    compatible_brands: isomiso2avc1mp41\n",
      "    encoder         : Lavf58.29.100\n",
      "  Duration: 00:00:26.73, start: 0.000000, bitrate: 22 kb/s\n",
      "    Stream #0:0(und): Video: h264 (High) (avc1 / 0x31637661), yuv420p, 400x400 [SAR 1:1 DAR 1:1], 21 kb/s, 15 fps, 15 tbr, 15360 tbn, 30 tbc (default)\n",
      "    Metadata:\n",
      "      handler_name    : VideoHandler\n",
      "Stream mapping:\n",
      "  Stream #0:0 -> #0:0 (h264 (native) -> gif (native))\n",
      "Press [q] to stop, [?] for help\n",
      "\u001b[1;34m[swscaler @ 0x10ceb5000] \u001b[0m\u001b[0;33mNo accelerated colorspace conversion found from yuv420p to bgr8.\n",
      "\u001b[0mOutput #0, gif, to 'video_060.gif':\n",
      "  Metadata:\n",
      "    major_brand     : isom\n",
      "    minor_version   : 512\n",
      "    compatible_brands: isomiso2avc1mp41\n",
      "    encoder         : Lavf58.29.100\n",
      "    Stream #0:0(und): Video: gif, bgr8, 400x400 [SAR 1:1 DAR 1:1], q=2-31, 200 kb/s, 15 fps, 100 tbn, 15 tbc (default)\n",
      "    Metadata:\n",
      "      handler_name    : VideoHandler\n",
      "      encoder         : Lavc58.54.100 gif\n",
      "frame=  401 fps=0.0 q=-0.0 Lsize=     177kB time=00:00:26.68 bitrate=  54.2kbits/s speed= 170x    \n",
      "video:177kB audio:0kB subtitle:0kB other streams:0kB global headers:0kB muxing overhead: 0.011063%\n"
     ]
    }
   ],
   "source": [
    "!ffmpeg -i figs/00/060/video.mp4 video_060.gif"
   ]
  },
  {
   "cell_type": "code",
   "execution_count": null,
   "metadata": {},
   "outputs": [],
   "source": []
  }
 ],
 "metadata": {
  "kernelspec": {
   "display_name": "Python 3",
   "language": "python",
   "name": "python3"
  },
  "language_info": {
   "codemirror_mode": {
    "name": "ipython",
    "version": 3
   },
   "file_extension": ".py",
   "mimetype": "text/x-python",
   "name": "python",
   "nbconvert_exporter": "python",
   "pygments_lexer": "ipython3",
   "version": "3.7.5"
  }
 },
 "nbformat": 4,
 "nbformat_minor": 4
}
